<svg xmlns="http://www.w3.org/2000/svg" viewBox="0 0 215.74 110.85"><defs><style>.a,.b,.c{isolation:isolate;}.b,.c{font-size:20.51px;font-family:Montserrat-ExtraBold, Montserrat;font-weight:800;}.b{letter-spacing:-0.02em;}</style></defs><g class="a"><text class="b" transform="translate(71.16 101.14)">C</text><text class="c" transform="translate(85.99 101.14)">OSMO</text></g><path d="M128,42.52a7.15,7.15,0,0,1-5.68-8.36h0l.71-3.71c1.9-10-4.34-19.88-14.27-21.9a18.36,18.36,0,0,0-21.67,14.3L87,23.3c-1.78,10,5.14,19.44,15.09,21.34l3.71.71a7.17,7.17,0,0,1,5.68,8.38C110,61.66,115,69.6,122.89,71.15A14.53,14.53,0,0,0,140,59.7l0-.15A14.82,14.82,0,0,0,128,42.52Z"/><circle cx="93.24" cy="61.23" r="10.2"/></svg>