<svg xmlns="http://www.w3.org/2000/svg" viewBox="0 0 512 512"><defs><style>.a,.b{stroke:#000;stroke-miterlimit:10;stroke-width:2px;}.b{fill:#fff;}</style></defs><circle class="a" cx="271.13" cy="263.78" r="208.09"/><path class="b" d="M348.54,168.4c-30.25-1.1-50.68,16.24-61.46,51.75a39.17,39.17,0,0,1,16.15-3.59c11.08,0,16,6.33,14.67,18.92q-1,11.45-14.65,33.31t-20.59,21.89c-13.83,0-22.15-66.2-25-84.28q-5.88-37.69-31.33-35.24c-15.58,1.48-42.76,29.53-64.12,48.54l10.26,13.38q14.66-10.38,17.1-10.39c17,0,25.24,57.87,38.44,100.9,8.86,23.75,19.49,35.63,32.3,35.63q30.85,0,75.35-58.48,43-56,44.48-88.21l.12-.09c1.21-28.76-9.28-43.49-31.75-44Z"/></svg>