<?xml version="1.0" encoding="utf-8"?>
<!-- Generator: Adobe Illustrator 25.3.1, SVG Export Plug-In . SVG Version: 6.00 Build 0)  -->
<svg version="1.1" id="Livello_1" xmlns="http://www.w3.org/2000/svg" xmlns:xlink="http://www.w3.org/1999/xlink" x="0px" y="0px"
	 viewBox="0 0 512 512" style="enable-background:new 0 0 512 512;" xml:space="preserve">
<style type="text/css">
	.st0{fill:none;stroke:#000000;stroke-width:2;stroke-miterlimit:10;}
</style>
<path class="st0" d="M215.8,223.2c10.8-2.2,21.4-5,31.9-8.3c-13.2-24.5-30-46.8-50-66.1c-29,15.6-51,43.3-58.1,76.4
	C160.9,229.6,187.2,229,215.8,223.2z"/>
<path class="st0" d="M324.3,161.7l-1.9,7.4c-3,11.8-27.9,28.7-60.6,40.9l-1.5,0.5c-13.1-24.9-29.8-47.6-49.6-67.6
	c13-5.2,26.8-8,40.8-8.1c24.8,0.2,48.8,8.4,68.5,23.4C321.5,159.2,323,160.4,324.3,161.7z"/>
<path class="st0" d="M265.6,254.8c-3.5-9.5-7.4-18.8-11.7-27.8c-11.6,3.9-23.4,7-35.4,9.4c-16.1,3.3-32.4,5-48.8,5.1
	c-10.8,0.1-21.6-0.9-32.2-2.8c-0.3,3.5,0.1,7,0.1,10.6c0,33.9,15.1,66.1,41.2,87.7c0.1-0.8,0.3-1.6,0.4-2.4
	C184.2,303.7,219.8,271.1,265.6,254.8z"/>
<path class="st0" d="M270,267.4c9.3,29.6,14.3,60.4,14.8,91.4c-31,9.6-64.7,5.2-92.3-12c-0.7-3.3-0.7-6.7-0.1-10.1
	C196.5,311.4,229.8,282,270,267.4z"/>
<path class="st0" d="M364.7,265.5c-5.6,39.3-31.7,72.1-66.8,87.8c-0.9-30.6-6.1-60.8-15.3-90C312.6,255,341.1,256,364.7,265.5z"/>
<path class="st0" d="M365.9,249.3v2.4c-25.6-9.5-56-9.9-87.6-0.9c-3.5-9.7-7.5-19-11.8-28.2c22-8.3,63.2-27.3,68.9-50.3
	C354.9,193.2,365.8,220.7,365.9,249.3z"/>
<circle class="st0" cx="251.6" cy="249.3" r="208.1"/>
</svg>
