<svg xmlns="http://www.w3.org/2000/svg" viewBox="0 0 215.74 110.85"><polygon points="58.6 78.87 17.3 64.9 36.49 95.23 75.05 70.83 66.1 56.69 58.6 78.87"/><rect x="18.81" y="21.73" width="45.63" height="45.63" transform="translate(-13.91 69.7) rotate(-71.31)"/><path d="M79.25,51.09v7.58H74V37.05h8.47a8.28,8.28,0,0,1,5.9,2,6.77,6.77,0,0,1,2,5.16,7.15,7.15,0,0,1-.9,3.59,6.21,6.21,0,0,1-2.67,2.48,9.48,9.48,0,0,1-4.32.9Zm5.81-7q0-2.85-3.15-2.85H79.25V46.9h2.66c2.09,0,3.15-.9,3.15-2.78Z"/><path d="M112.52,54.73h-8.1l-1.35,3.94h-5.5l7.92-21.46h6l7.92,21.46h-5.57Zm-1.34-4-2.69-8-2.72,8Z"/><path d="M132.86,51.09v7.58h-5.23V37.05h8.47a8.28,8.28,0,0,1,5.9,2,6.77,6.77,0,0,1,2,5.16,7.15,7.15,0,0,1-.9,3.59,6.21,6.21,0,0,1-2.67,2.48,9.48,9.48,0,0,1-4.32.9Zm5.81-7q0-2.85-3.15-2.85h-2.66V46.9h2.66c2.1,0,3.15-.9,3.15-2.78Z"/><path d="M158,41.21v4.53h7.31v3.94H158v4.8h8.22v4.19H152.74V37.05h13.45v4.16Z"/><path d="M186.44,58.67l-4.68-8.16h-1.19v8.16h-5.23V37.05h8.93a9.69,9.69,0,0,1,4.34.89,6.07,6.07,0,0,1,2.66,2.43,7,7,0,0,1,.89,3.53,6.29,6.29,0,0,1-1.3,4,6.65,6.65,0,0,1-3.78,2.26l5.14,8.5Zm-5.87-11.74h3.24a3.27,3.27,0,0,0,2.29-.69,2.61,2.61,0,0,0,.74-2,2.65,2.65,0,0,0-.75-2,3.14,3.14,0,0,0-2.28-.73h-3.24Z"/></svg>