<?xml version="1.0" encoding="utf-8"?>
<!-- Generator: Adobe Illustrator 25.3.1, SVG Export Plug-In . SVG Version: 6.00 Build 0)  -->
<svg version="1.1" id="Livello_1" xmlns="http://www.w3.org/2000/svg" xmlns:xlink="http://www.w3.org/1999/xlink" x="0px" y="0px"
	 viewBox="0 0 512 512" style="enable-background:new 0 0 512 512;" xml:space="preserve">
<style type="text/css">
	.st0{fill:none;stroke:#000000;stroke-width:2;stroke-miterlimit:10;}
</style>
<circle class="st0" cx="256" cy="256" r="208.1"/>
<path class="st0" d="M232,247.9c5.6-2.8,9.9-6,12.8-9.4c5.2-6.1,7.7-14.2,7.7-24.3c0-9.8-2.6-18.2-7.7-25.2
	c-8.5-11.4-23-17.3-43.4-17.6h-80.8v165.1H196c7.9,0.1,15.9-0.7,23.6-2.2c6.8-1.3,13.3-4.1,18.9-8.3c4.8-3.5,8.8-7.9,11.9-13
	c5-7.9,7.6-17,7.5-26.3c0-9.5-2.2-17.5-6.5-24.2C247,255.8,240.5,251,232,247.9z M154,200.1h36.4c8,0,14.6,0.9,19.8,2.6
	c6,2.5,9,7.6,9,15.3c0,6.9-2.3,11.8-6.8,14.5s-10.4,4.1-17.7,4.1H154V200.1z M211.6,304.9c-4,2-9.7,2.9-17,2.9H154v-44h41.2
	c7.2,0.1,12.8,1,16.8,2.8c7.1,3.2,10.6,9.1,10.6,17.7C222.6,294.4,218.9,301.3,211.6,304.9L211.6,304.9z"/>
<rect x="293.6" y="179.1" class="st0" width="71.7" height="20.6"/>
<path class="st0" d="M390.3,260.2c-1.3-9.1-4.7-17.7-9.9-25.2c-5.3-7.9-12.7-14.2-21.4-18.1c-9.2-3.9-19.1-5.9-29.1-5.7
	c-18.1,0-32.9,5.6-44.2,16.9c-11.4,11.3-17,27.5-17,48.7c0,22.6,6.3,38.8,18.9,48.9c12.6,10,27.1,15,43.6,15
	c19.9,0,35.5-5.9,46.6-17.8c7.1-7.5,11.1-14.8,12-22.1h-33c-1.6,3.2-3.9,6.1-6.7,8.4c-4.6,3.7-10.6,5.6-17.9,5.6
	c-7,0-12.9-1.5-17.9-4.6c-8.2-4.9-12.4-13.5-13-25.7h90.1C391.5,273.9,391.1,265.8,390.3,260.2z M302,263.3
	c1.2-7.9,4.1-14.2,8.6-18.9c4.6-4.6,11-7,19.3-7c7.6,0,14,2.2,19.2,6.6s8,10.8,8.6,19.3L302,263.3z"/>
</svg>
