<svg xmlns="http://www.w3.org/2000/svg" viewBox="0 0 130 130"><defs><style>.a{fill:#e2b013;}</style></defs><path class="a" d="M95.26,87.42a42.43,42.43,0,1,0-7.81,7.81l14.84,15a2,2,0,0,0,2.77,0l5.16-5.16a2,2,0,0,0,0-2.78ZM61.94,97.62a35.92,35.92,0,0,1-35-43.89c2.62-12.13,14.85-24.36,27-27a35.92,35.92,0,0,1,43.89,35h0A35.87,35.87,0,0,1,61.94,97.62Z"/><path class="a" d="M95.44,87.41a42.58,42.58,0,1,0-8,8l14.85,15a2,2,0,0,0,2.77,0l5.36-5.36a2,2,0,0,0,0-2.77Zm-59.6,7.7a42.3,42.3,0,1,1,59.32-7.77l-.07.09,15,14.83a2,2,0,0,1,0,2.78l-5,5a2,2,0,0,1-2.77,0l-14.83-15-.09.07A42.36,42.36,0,0,1,35.84,95.11Z"/></svg>