<svg xmlns="http://www.w3.org/2000/svg" viewBox="0 0 215.74 110.85"><path d="M72.56,82.33a5.41,5.41,0,0,1-2.29,2,8,8,0,0,1-3.67.76,8.69,8.69,0,0,1-5.36-1.58A5.76,5.76,0,0,1,59,79.13h5a2.55,2.55,0,0,0,.78,1.72,2.37,2.37,0,0,0,1.7.63A2,2,0,0,0,67.83,81a1.9,1.9,0,0,0,0-2.54,3.87,3.87,0,0,0-1.19-.81c-.48-.2-1.13-.46-2-.75a24.42,24.42,0,0,1-3-1.21,5.44,5.44,0,0,1-2-1.75,5.65,5.65,0,0,1,0-6A5.54,5.54,0,0,1,62.18,66a8.78,8.78,0,0,1,3.54-.67,7.91,7.91,0,0,1,5.12,1.53A5.83,5.83,0,0,1,73,71.07H67.93a2.57,2.57,0,0,0-.69-1.51A2.09,2.09,0,0,0,65.72,69a2,2,0,0,0-1.32.44,1.59,1.59,0,0,0-.51,1.28,1.61,1.61,0,0,0,.45,1.16,3.31,3.31,0,0,0,1.14.78c.45.2,1.11.45,2,.76a21.83,21.83,0,0,1,3,1.25,5.73,5.73,0,0,1,2,1.79,5.12,5.12,0,0,1,.84,3.06A5.35,5.35,0,0,1,72.56,82.33Z"/><path d="M86,65.64V76.78a4.44,4.44,0,0,0,.86,2.93,3.59,3.59,0,0,0,5,0,4.44,4.44,0,0,0,.86-2.93V65.64h4.67V76.78a9.26,9.26,0,0,1-1.07,4.61A7,7,0,0,1,93.4,84.2a9,9,0,0,1-4.16.94,8.71,8.71,0,0,1-4.1-.93,6.61,6.61,0,0,1-2.78-2.81,9.59,9.59,0,0,1-1-4.62V65.64Z"/><path d="M127.72,65.78V85h-4.67V73L118.9,85h-4l-4.18-12V85H106V65.78h5.71l5.21,13.35L122,65.78Z"/><path d="M141.13,65.64V85h-4.67V65.64Z"/><path d="M163.75,65.64v3.71h-5.24V85h-4.7V69.35h-5.19V65.64Z"/><polygon points="96.02 48.52 114.31 39.35 105.14 57.64 91.25 58.04 96.02 48.52"/><polygon points="132.61 48.52 114.31 39.35 123.48 57.64 137.38 58.04 132.61 48.52"/><polygon points="122.44 28.67 117.51 38.3 130.78 44.95 122.44 28.67"/><polygon points="111.12 38.3 106.18 28.67 97.84 44.95 111.12 38.3"/><polygon points="114.31 39.35 121.11 26.07 114.31 12.8 107.51 26.07 114.31 39.35"/><polygon points="121.02 58.04 114.31 44.95 107.61 58.04 121.02 58.04"/></svg>