<svg xmlns="http://www.w3.org/2000/svg" viewBox="0 0 215.74 110.85"><defs><style>.a{isolation:isolate;}</style></defs><g class="a"><g class="a"><path d="M102,64.19a11.74,11.74,0,0,1-4.64-4.36,12.8,12.8,0,0,1,0-12.68A11.74,11.74,0,0,1,102,42.79a13.87,13.87,0,0,1,6.65-1.57,14.22,14.22,0,0,1,5.84,1.15,11.1,11.1,0,0,1,4.31,3.3l-4.25,3.84A7,7,0,0,0,109,46.75a6.88,6.88,0,0,0-3.42.84A5.87,5.87,0,0,0,103.24,50a8,8,0,0,0,0,7,5.81,5.81,0,0,0,2.33,2.38,6.88,6.88,0,0,0,3.42.84,7,7,0,0,0,5.56-2.76l4.25,3.84a11.22,11.22,0,0,1-4.31,3.31,14.39,14.39,0,0,1-5.84,1.14A13.87,13.87,0,0,1,102,64.19Z"/></g><g class="a"><path d="M124.2,62.9q-2.91-2.86-2.91-8.13V41.69H128V54.57c0,3.78,1.5,5.66,4.49,5.66s4.45-1.88,4.45-5.66V41.69h6.57V54.77q0,5.26-2.92,8.13c-1.94,1.91-4.67,2.86-8.17,2.86S126.15,64.81,124.2,62.9Z"/><path d="M169.29,55.19a5.83,5.83,0,0,1,1.15,3.63,5.41,5.41,0,0,1-2.5,4.78c-1.66,1.13-4.07,1.69-7.21,1.69H148V41.69h12.06q4.53,0,6.88,1.67a5.24,5.24,0,0,1,2.36,4.5,5.53,5.53,0,0,1-.83,3A5.78,5.78,0,0,1,166.12,53,6.57,6.57,0,0,1,169.29,55.19Zm-14.7-8.68v4.55h4.59c2.24,0,3.37-.76,3.37-2.29s-1.13-2.26-3.37-2.26Zm9.1,11.57c0-1.6-1.16-2.4-3.5-2.4h-5.6v4.79h5.6C162.53,60.47,163.69,59.67,163.69,58.08Z"/><path d="M192.85,60.13v5.16H173.91V41.69h18.51v5.16h-11.9v4H191v5H180.52v4.31Z"/></g></g><polygon points="57.4 35.68 57.42 35.67 57.42 22.04 57.4 22.04 57.4 35.67 57.4 35.68"/><polygon points="57.42 87.82 57.41 87.81 57.41 87.82 41.72 78.76 34.83 74.78 34.83 74.77 34.83 74.78 23.03 81.59 23.03 81.6 57.42 101.45 91.81 81.6 80 74.78 57.42 87.82"/><polygon points="80 48.7 80 74.78 91.81 81.6 91.81 41.89 57.42 22.04 57.42 35.67 80 48.7"/><polygon points="23.03 81.59 34.83 74.78 34.83 74.77 34.83 48.7 57.4 35.68 57.4 35.67 57.4 22.04 57.4 22.04 23.02 41.89 23.02 81.6 23.03 81.59"/><polygon points="47.17 72.85 42.68 70.25 42.68 53.23 57.41 61.74 57.41 78.76 57.42 78.76 57.42 61.74 72.15 53.23 57.42 44.73 57.41 44.74 42.68 53.23 42.68 70.25 42.68 70.25 47.17 72.85"/><polygon points="57.42 61.74 57.42 78.76 72.15 70.25 72.15 53.23 57.42 61.74"/><polygon points="42.68 53.23 42.68 70.25 47.17 72.85 57.41 78.76 57.41 78.76 57.41 61.74 42.68 53.23"/></svg>