<svg xmlns="http://www.w3.org/2000/svg" viewBox="0 0 215.74 110.85"><defs><style>.a,.b,.c,.d,.e,.f{isolation:isolate;}.b,.c,.d{font-size:19.48px;font-family:Montserrat-ExtraBold, Montserrat;font-weight:800;}.c{letter-spacing:-0.02em;}.d{letter-spacing:-0.01em;}.e,.f{font-size:11.79px;font-family:Montserrat-Thin, Montserrat;font-weight:200;}.f{letter-spacing:-0.01em;}</style></defs><g class="a"><text class="b" transform="translate(102.88 45.31)">TR</text><text class="c" transform="translate(129.66 45.31)">O</text><text class="d" transform="translate(145.67 45.31)">V</text><text class="b" transform="translate(160.29 45.31)">L</text></g><g class="a"><text class="e" transform="translate(102.92 60.34)">e</text><text class="e" transform="translate(109.89 60.34)">n</text><text class="e" transform="translate(117.8 60.34)">gi</text><text class="e" transform="translate(128.81 60.34)">n</text><text class="e" transform="translate(136.72 60.34)">ee</text><text class="f" transform="translate(150.65 60.34)">r</text><text class="e" transform="translate(155.12 60.34)">i</text><text class="e" transform="translate(158.13 60.34)">n</text><text class="e" transform="translate(166.04 60.34)">g</text></g><polygon points="50.63 30.52 72.19 18.07 72.19 42.97 50.63 30.52"/><polyline points="93.76 30.52 72.19 18.07 72.19 42.97 93.76 30.52"/><polyline points="93.76 55.43 93.76 30.52 72.19 42.97"/><polygon points="50.63 55.43 72.19 67.88 72.19 42.97 50.63 55.43"/><polygon points="72.19 42.97 72.19 67.88 93.76 55.43 72.19 42.97"/><polygon points="50.63 55.43 50.63 80.33 72.19 67.88 50.63 55.43"/><polygon points="50.63 80.33 72.19 92.78 72.19 67.88 50.63 80.33"/><polygon points="72.19 67.88 72.19 92.78 93.76 80.33 72.19 67.88"/></svg>