<svg xmlns="http://www.w3.org/2000/svg" viewBox="0 0 215.74 110.85"><path d="M76.06,43.31a.88.88,0,0,1-.63.89l-17.2,5.56c-3.58,1.13-7.17,2.09-10.66,3v.17c3.41.88,6.9,1.75,10.75,3.06l17,5.56a.92.92,0,0,1,.63.91c-.09,1.6-.21,3.19-.36,4.78A1.48,1.48,0,0,1,74,68.59a1.37,1.37,0,0,1-.4-.09L35.32,54.93a2.18,2.18,0,0,1,0-4.11l38.5-13.38a1.49,1.49,0,0,1,1.91.86,1.57,1.57,0,0,1,.09.43C75.92,40.25,76,41.78,76.06,43.31Z"/><path d="M82.81,65.15a.9.9,0,0,1,1-.84.85.85,0,0,1,.23,0l8.36,2.74a10.87,10.87,0,0,1,7.38,10.29v.34l-16.39-5.8a1.48,1.48,0,0,1-1-1.54C82.54,68.64,82.68,66.9,82.81,65.15Z"/><path d="M63.76,66.9h0a.61.61,0,0,1,.4.52c1.15,11.92,3.67,20.21,6.6,20.21,4,0,7.24-15.48,7.24-34.56s-3.24-34.56-7.24-34.56c-2.91,0-5.42,8.18-6.57,20a.64.64,0,0,1-.41.52h0a.62.62,0,0,1-.76-.44.62.62,0,0,1,0-.19c1.28-17.57,4.77-30.19,8.89-30.19,5.2,0,9.41,20.09,9.41,44.87S77,97.94,71.84,97.94c-4.13,0-7.64-12.72-8.91-30.41a.63.63,0,0,1,.6-.66A.46.46,0,0,1,63.76,66.9Z"/><path d="M99.73,28.44a10.88,10.88,0,0,1-7.47,10.33L84,41.42a.9.9,0,0,1-1.14-.57.93.93,0,0,1,0-.23c-.11-1.66-.25-3.32-.41-5a1.48,1.48,0,0,1,1-1.55Z"/><path d="M103,45.57A7.43,7.43,0,0,1,105.59,50h-4.13a3.82,3.82,0,0,0-1.4-1.75,3.91,3.91,0,0,0-2.25-.64,3.46,3.46,0,0,0-2.76,1.25,5.87,5.87,0,0,0,0,6.7,3.45,3.45,0,0,0,2.76,1.24,3.77,3.77,0,0,0,3.65-2.37h4.13A7.45,7.45,0,0,1,103,58.74a7.84,7.84,0,0,1-5.1,1.64,8,8,0,0,1-4.13-1,7,7,0,0,1-2.77-3,9.88,9.88,0,0,1,0-8.53A7,7,0,0,1,93.75,45a8,8,0,0,1,4.13-1A7.9,7.9,0,0,1,103,45.57Z"/><path d="M116.28,44.11V60.24h-3.9V44.11Z"/><path d="M131.86,60.24l-3.49-6.09h-.89v6.09h-3.9V44.11h6.66a7.22,7.22,0,0,1,3.24.66,4.69,4.69,0,0,1,2,1.82,5.14,5.14,0,0,1,.66,2.63,4.72,4.72,0,0,1-1,3,5,5,0,0,1-2.82,1.69l3.83,6.34Zm-4.38-8.76h2.42a2.45,2.45,0,0,0,1.71-.51,2.07,2.07,0,0,0-1.7-3.55h-2.42Z"/><path d="M155.16,45.57A7.38,7.38,0,0,1,157.77,50h-4.13a3.82,3.82,0,0,0-1.4-1.75,3.91,3.91,0,0,0-2.25-.64,3.46,3.46,0,0,0-2.76,1.25,5.9,5.9,0,0,0,0,6.7A3.44,3.44,0,0,0,150,56.75a3.91,3.91,0,0,0,2.25-.64,3.77,3.77,0,0,0,1.4-1.73h4.13a7.38,7.38,0,0,1-2.61,4.36,7.82,7.82,0,0,1-5.1,1.64,8,8,0,0,1-4.13-1,6.93,6.93,0,0,1-2.74-2.91,9.88,9.88,0,0,1,0-8.53A6.92,6.92,0,0,1,145.93,45a8,8,0,0,1,4.13-1A7.93,7.93,0,0,1,155.16,45.57Z"/><path d="M168.47,57.25h5.2v3h-9.1V44.11h3.9Z"/><path d="M184,47.22v3.37h5.45v2.94H184v3.58h6.13v3.13h-10V44.11h10v3.11Z"/></svg>