<?xml version="1.0" encoding="utf-8"?>
<!-- Generator: Adobe Illustrator 25.3.1, SVG Export Plug-In . SVG Version: 6.00 Build 0)  -->
<svg version="1.1" id="Livello_1" xmlns="http://www.w3.org/2000/svg" xmlns:xlink="http://www.w3.org/1999/xlink" x="0px" y="0px"
	 viewBox="0 0 512 512" style="enable-background:new 0 0 512 512;" xml:space="preserve">
<style type="text/css">
	.st0{fill:none;stroke:#000000;stroke-width:2;stroke-miterlimit:10;}
</style>
<circle class="st0" cx="271.1" cy="263.8" r="208.1"/>
<path class="st0" d="M348.5,168.4c-30.2-1.1-50.7,16.2-61.5,51.8c5.1-2.3,10.6-3.6,16.1-3.6c11.1,0,16,6.3,14.7,18.9
	c-0.7,7.6-5.6,18.7-14.6,33.3c-9.1,14.6-16,21.9-20.6,21.9c-13.8,0-22.1-66.2-25-84.3c-3.9-25.1-14.4-36.9-31.3-35.2
	c-15.6,1.5-42.8,29.5-64.1,48.5l10.3,13.4c9.8-6.9,15.5-10.4,17.1-10.4c17,0,25.2,57.9,38.4,100.9c8.9,23.8,19.5,35.6,32.3,35.6
	c20.6,0,45.7-19.5,75.4-58.5c28.7-37.3,43.5-66.7,44.5-88.2l0.1-0.1C381.5,183.7,371,168.9,348.5,168.4L348.5,168.4z"/>
</svg>
