<svg xmlns="http://www.w3.org/2000/svg" viewBox="0 0 512 512"><defs><style>.a,.b{stroke:#000;stroke-miterlimit:10;stroke-width:2px;}.b{fill:#fff;}</style></defs><circle class="a" cx="251.64" cy="249.26" r="208.09"/><path class="b" d="M215.82,223.25a292.71,292.71,0,0,0,31.91-8.32,271.45,271.45,0,0,0-50-66.12c-29,15.56-51,43.32-58.11,76.45C160.92,229.55,187.25,229,215.82,223.25Z"/><path class="b" d="M324.31,161.69l-1.87,7.37c-2.95,11.81-27.9,28.7-60.62,40.91l-1.48.54a285.44,285.44,0,0,0-49.62-67.6,111.49,111.49,0,0,1,40.77-8.09A114.19,114.19,0,0,1,320,158.2,34.42,34.42,0,0,1,324.31,161.69Z"/><path class="b" d="M265.57,254.76Q260.35,240.48,253.9,227a290.1,290.1,0,0,1-35.4,9.39,251.8,251.8,0,0,1-48.82,5.09,175,175,0,0,1-32.23-2.81c-.27,3.48.05,7,.05,10.59A114,114,0,0,0,178.67,337c.13-.8.27-1.61.4-2.41C184.17,303.71,219.84,271.12,265.57,254.76Z"/><path class="b" d="M270,267.37a322,322,0,0,1,14.75,91.37,112.08,112.08,0,0,1-92.27-12,28.11,28.11,0,0,1-.13-10.06C196.51,311.36,229.76,282,270,267.37Z"/><path class="b" d="M364.72,265.49c-5.63,39.3-31.69,72.15-66.83,87.84a333.54,333.54,0,0,0-15.29-90C312.65,255,341.12,256,364.72,265.49Z"/><path class="b" d="M365.93,249.26v2.42c-25.61-9.52-56-9.93-87.62-.94-3.48-9.66-7.51-19-11.8-28.16,22-8.28,63.18-27.33,68.93-50.3A113.76,113.76,0,0,1,365.93,249.26Z"/></svg>