<svg xmlns="http://www.w3.org/2000/svg" viewBox="0 0 215.74 110.85"><path d="M49.31,69.51V86h-4V75.69L41.72,86H38.24L34.65,75.67V86h-4V69.51h4.91L40,81l4.39-11.49Z"/><path d="M69,70.23a8,8,0,0,1,3,3,8.63,8.63,0,0,1,1.11,4.38A8.74,8.74,0,0,1,72,82a8,8,0,0,1-3,3,8.81,8.81,0,0,1-8.48,0,8,8,0,0,1-3-3,8.78,8.78,0,0,1-1.11-4.4,8.63,8.63,0,0,1,1.11-4.38,8.15,8.15,0,0,1,3-3,8.74,8.74,0,0,1,8.5,0Zm-7.4,3.92a5.82,5.82,0,0,0,0,7,4.44,4.44,0,0,0,6.26,0,5.87,5.87,0,0,0,0-7,4.43,4.43,0,0,0-6.24,0Z"/><path d="M84,69.39V79a3.76,3.76,0,0,0,.74,2.51,3.09,3.09,0,0,0,4.3,0A3.72,3.72,0,0,0,89.8,79V69.39h4V79a8,8,0,0,1-.92,4,6,6,0,0,1-2.5,2.42,7.83,7.83,0,0,1-3.59.81,7.54,7.54,0,0,1-3.52-.8A5.75,5.75,0,0,1,80.89,83,8.28,8.28,0,0,1,80,79V69.39Z"/><path d="M116,86h-4l-6.72-10.2V86h-4V69.39h4L112,79.69V69.39h4Z"/><path d="M135.45,69.39v3.2h-4.51V86h-4V72.59h-4.46v-3.2Z"/><path d="M152.18,83H146l-1,3h-4.23l6.09-16.5h4.63l6,16.5h-4.28Zm-1-3.06-2.07-6.11L147,79.92Z"/><path d="M167.81,69.39V86h-4V69.39Z"/><path d="M190.09,86h-4l-6.72-10.2V86h-4V69.39h4l6.72,10.3V69.39h4Z"/><polygon points="111.57 54.3 72.14 54.3 91.85 25.22 111.57 54.3"/><polygon points="116.31 54.3 154.41 54.3 125.61 11.81 106.56 39.91 116.31 54.3"/><circle cx="105.78" cy="17.07" r="5.79"/></svg>