<svg xmlns="http://www.w3.org/2000/svg" viewBox="0 0 512 512"><defs><style>.a,.b{stroke:#000;stroke-miterlimit:10;stroke-width:2px;}.b{fill:#fff;}</style></defs><circle class="a" cx="256" cy="256" r="208.09"/><path class="b" d="M232,247.88a41,41,0,0,0,12.78-9.38c5.18-6.13,7.73-14.25,7.73-24.32,0-9.8-2.55-18.17-7.66-25.2q-12.79-17.16-43.38-17.6H120.62V336.44H196a118,118,0,0,0,23.64-2.22,46.4,46.4,0,0,0,18.9-8.29,45.82,45.82,0,0,0,11.85-13,47.79,47.79,0,0,0,7.46-26.32q0-14.22-6.51-24.18C247,255.81,240.54,251,232,247.88Zm-78-47.83h36.4q12,0,19.78,2.57c6,2.49,9,7.55,9,15.27,0,6.92-2.29,11.76-6.81,14.48s-10.45,4.1-17.7,4.1H154Zm57.59,104.84c-4,1.95-9.7,2.91-17,2.91H154v-44h41.19c7.18.06,12.76,1,16.75,2.78,7.11,3.22,10.65,9.11,10.65,17.72,0,10.13-3.68,17-11,20.59Z"/><rect class="b" x="293.65" y="179.08" width="71.71" height="20.55"/><path class="b" d="M390.27,260.16a59,59,0,0,0-9.89-25.23A49.74,49.74,0,0,0,359,216.87a70.82,70.82,0,0,0-29.11-5.72q-27.19,0-44.24,16.93t-17,48.67q0,33.84,18.9,48.86a68,68,0,0,0,43.58,15q29.92,0,46.56-17.79,10.63-11.22,12-22.07h-33a26.68,26.68,0,0,1-6.67,8.4c-4.6,3.72-10.59,5.58-17.93,5.58-7,0-12.92-1.54-17.86-4.6-8.16-4.91-12.42-13.51-13-25.74h90.15C391.49,273.85,391.15,265.75,390.27,260.16ZM302,263.33q1.77-11.91,8.63-18.89c4.57-4.64,11-7,19.31-7,7.63,0,14,2.18,19.21,6.57s8,10.83,8.61,19.31Z"/></svg>