<svg xmlns="http://www.w3.org/2000/svg" viewBox="0 0 215.74 110.85"><path d="M33.14,41.28h1.14a3.44,3.44,0,0,1,3.43,3.43h0V65c0,.45.07.9.09,1.35,0-1.27,0,.09.14.48s.23.84.37,1.26l.1.22.08.18q.3.6.66,1.17l.31.45h0l1.7,1.7.47.32c.37.23.74.44,1.12.63.13.07.32.13.46.21.41.14.83.27,1.25.37s1.75.19.48.14c.49,0,1,.08,1.48.09h1l.33,0h0c.36-.07.72-.16,1.08-.26s.47-.17.7-.27c0,.05,0,.06.23,0l.2-.1h0l.42-.21q.46-.25.9-.54L51.6,72l-.05.06.06-.07.19-.14c.19-.12.2-.21.12-.16.22-.2.48-.38.67-.57a7.18,7.18,0,0,0,.65-.7h0l.21-.27a10.37,10.37,0,0,0,.62-1c.17-.29.29-.72.49-1s.1-.28.14-.42a8.69,8.69,0,0,0,.3-1.22,3,3,0,0,1,.08-.41c0-.4.06-.8.06-1.2V44.71a3.45,3.45,0,0,1,3.43-3.43h1.15a3.45,3.45,0,0,1,3.43,3.43v.89c0,6.42.06,12.84,0,19.26A17,17,0,0,1,46.43,81.58h-.22C38.46,81.4,31.27,75.69,30,67.89A48.39,48.39,0,0,1,29.71,60V44.71a3.44,3.44,0,0,1,3.43-3.43Z"/><path d="M46.94,66.75H45.79a3.45,3.45,0,0,1-3.43-3.43h0V43c0-.45-.07-.9-.08-1.35,0,1.26,0-.09-.14-.49s-.23-.84-.38-1.25a.84.84,0,0,0-.1-.23l-.08-.17q-.3-.6-.66-1.17l-.3-.46h0l-1.71-1.7-.47-.32c-.36-.23-.73-.44-1.12-.64l-.45-.2c-.41-.15-.83-.27-1.25-.38s-1.75-.18-.49-.14c-.49,0-1-.08-1.47-.08H32.33c-.37.07-.73.16-1.08.26a6.4,6.4,0,0,0-.71.27c.05,0,0-.05-.22,0l-.2.1h0l-.41.21c-.31.17-.61.35-.91.54l-.27.19v-.06l-.05.07-.2.13c-.18.12-.2.21-.11.17-.23.19-.49.38-.68.56a9,9,0,0,0-.64.7h0l-.21.28a11.18,11.18,0,0,0-.62,1,7.71,7.71,0,0,1-.49,1c-.05.14-.09.29-.14.43-.12.38-.22.77-.31,1.16a1.89,1.89,0,0,1-.08.4c0,.4-.06.8-.06,1.2V63.32a3.44,3.44,0,0,1-3.43,3.43H20.35a3.45,3.45,0,0,1-3.43-3.43v-.89c0-6.42-.05-12.85,0-19.27A17,17,0,0,1,33.65,26.44h.21c7.75.18,15,5.89,16.21,13.69a48,48,0,0,1,.3,7.86V63.32A3.45,3.45,0,0,1,46.94,66.75Z"/><path d="M75.41,45.37V61.43H71.52V45.37Z"/><path d="M96.12,57.56a6.93,6.93,0,0,1-2.9,2.85,9.35,9.35,0,0,1-4.47,1H82.68v-16h6.07a9.54,9.54,0,0,1,4.48,1,7.07,7.07,0,0,1,2.89,2.82,9.12,9.12,0,0,1,0,8.38Zm-4.18-.81a5.15,5.15,0,0,0,0-6.75,4.9,4.9,0,0,0-3.53-1.21H86.57V58h1.84A4.92,4.92,0,0,0,91.94,56.75Z"/><path d="M107.82,48.46v3.36h5.43v2.93h-5.43v3.57h6.11v3.11h-10V45.37h10v3.09Z"/><path d="M135,61.43h-3.89l-6.5-9.86v9.86h-3.89V45.37h3.89l6.5,10v-10H135Z"/><path d="M153.81,45.37v3.09h-4.36v13h-3.91v-13h-4.32V45.37Z"/><path d="M163.93,45.37V61.43H160V45.37Z"/><path d="M182.74,45.37v3.09h-4.36v13h-3.91v-13h-4.32V45.37Z"/><path d="M202.86,45.37l-5.57,10.72v5.34h-3.91V56.09l-5.57-10.72h4.46l3.09,6.54,3.09-6.54Z"/><path d="M91.55,67h1.11L94,72.22,95.41,67h1.18l1.32,5.16L99.24,67h1.12l-1.89,6.4H97.29L96,68.58,94.53,73.4H93.36Z"/><path d="M106.6,67.87h-2.47v1.87h2.2v.85h-2.2v2h2.47v.85h-3.52V67h3.52Z"/><path d="M112.29,73.4h-2.55V67h2.43c1.35,0,2.06.74,2.06,1.64a1.49,1.49,0,0,1-1.08,1.46,1.59,1.59,0,0,1,1.23,1.55C114.38,72.66,113.59,73.4,112.29,73.4Zm-.21-5.52h-1.29V69.7h1.29c.68,0,1.09-.32,1.09-.9S112.76,67.88,112.08,67.88Zm.08,2.68h-1.37v2h1.41c.7,0,1.14-.36,1.14-1S112.86,70.56,112.16,70.56Z"/><path d="M122.84,70.24a3.06,3.06,0,0,1-2.94,3.18,3.39,3.39,0,0,1-.45,0h-2.08V67h2.08a3.09,3.09,0,0,1,3.38,2.77A3.69,3.69,0,0,1,122.84,70.24Zm-3.39,2.31a2.1,2.1,0,0,0,2.31-1.87,1.62,1.62,0,0,0,0-.44,2.12,2.12,0,0,0-1.86-2.36h-1.45v4.67Z"/><path d="M129.25,67.87h-2.48v1.87H129v.85h-2.2v2h2.48v.85h-3.52V67h3.52Z"/><path d="M134.49,73.46c-1.28,0-2.26-.69-2.26-1.82h1.12a1,1,0,0,0,1.05,1h.09c.73,0,1.14-.39,1.14-.93,0-1.54-3.38-.54-3.38-2.89,0-1.12.89-1.81,2.19-1.81a1.94,1.94,0,0,1,2.16,1.69v0h-1.15a1,1,0,0,0-1.07-.84c-.61,0-1.08.27-1.08.88,0,1.44,3.38.55,3.38,2.87a2,2,0,0,1-2.12,1.88Z"/><path d="M139.78,67h1.05v6.4h-1.05Z"/><path d="M149.92,68.86h-1.25a1.82,1.82,0,0,0-1.71-1,2.31,2.31,0,0,0,0,4.61,1.94,1.94,0,0,0,2-1.77h-2.4v-.83h3.52v.81a3.22,3.22,0,0,1-6.41-.52,3.18,3.18,0,0,1,3.2-3.16H147A3,3,0,0,1,149.92,68.86Z"/><path d="M158.23,67v6.4h-1L154,68.64V73.4h-1V67h1l3.15,4.75V67Z"/></svg>