<?xml version="1.0" encoding="utf-8"?>
<!-- Generator: Adobe Illustrator 25.4.1, SVG Export Plug-In . SVG Version: 6.00 Build 0)  -->
<svg version="1.1" id="Livello_1" xmlns="http://www.w3.org/2000/svg" xmlns:xlink="http://www.w3.org/1999/xlink" x="0px" y="0px"
	 viewBox="0 0 130 130" style="enable-background:new 0 0 130 130;" xml:space="preserve">
<style type="text/css">
	.st0{stroke:#000000;stroke-width:4;stroke-miterlimit:10;}
</style>
<path class="st0" d="M39,92.9c-15.4,0-27.9-12.5-27.9-27.9c0-15.4,12.5-27.9,27.9-27.9c15,0,45,25.8,46.2,26.9
	c0.5,0.4,0.6,1.2,0.1,1.7c0,0-0.1,0.1-0.1,0.1C84,67,54,92.9,39,92.9z M39,39.6C25,39.6,13.6,51,13.6,65S25,90.4,39,90.4
	c12.5,0,37.9-20.7,43.5-25.4C76.9,60.3,51.5,39.6,39,39.6z"/>
<path class="st0" d="M91,92.9c-15,0-45-25.8-46.2-26.9c-0.5-0.4-0.7-1.2-0.2-1.8c0.4-0.5,1.2-0.7,1.8-0.2c0,0,0.1,0.1,0.1,0.1
	c0.3,0.3,30.5,26.3,44.6,26.3c14,0,25.4-11.4,25.4-25.4S105,39.6,91,39.6c-5.4,0-14.1,4-25.3,11.6c-0.6,0.4-1.3,0.2-1.7-0.3
	c-0.4-0.6-0.2-1.3,0.3-1.7c0,0,0,0,0,0c11.8-8,20.8-12,26.7-12c15.4,0,27.9,12.5,27.9,27.9S106.4,92.9,91,92.9L91,92.9z"/>
</svg>
