<?xml version="1.0" encoding="utf-8"?>
<!-- Generator: Adobe Illustrator 25.4.1, SVG Export Plug-In . SVG Version: 6.00 Build 0)  -->
<svg version="1.1" id="Livello_1" xmlns="http://www.w3.org/2000/svg" xmlns:xlink="http://www.w3.org/1999/xlink" x="0px" y="0px"
	 viewBox="0 0 130 130" style="enable-background:new 0 0 130 130;" xml:space="preserve">
<style type="text/css">
	.st0{stroke:#000000;stroke-width:4;stroke-miterlimit:10;}
</style>
<path class="st0" d="M65,88.4c-0.3,0-0.5-0.1-0.7-0.2c-6.6-5.1-12.5-11.2-17.4-18c-0.5-0.5-0.4-1.3,0.1-1.8s1.3-0.4,1.8,0.1
	c0.1,0.1,0.1,0.2,0.2,0.2c4.6,6.3,10,12,16.1,16.9c6.1-5,11.5-10.8,16-17.3c0.4-0.6,1.2-0.7,1.7-0.3c0.6,0.4,0.7,1.2,0.3,1.7
	c0,0,0,0,0,0c-4.8,7-10.7,13.2-17.3,18.4C65.5,88.3,65.3,88.4,65,88.4z"/>
<path class="st0" d="M85.3,66.2c-0.3,0-0.5-0.1-0.7-0.2c-0.6-0.4-0.7-1.2-0.3-1.7c0,0,0,0,0,0c4.6-6.5,6.9-11.9,6.9-16.2
	c0-14.5-11.7-26.2-26.2-26.2c-14.5,0-26.2,11.7-26.2,26.2c0,4.5,2.2,9.6,6.9,16.1c0.3,0.6,0.1,1.4-0.5,1.7c-0.5,0.3-1.1,0.2-1.5-0.2
	c-5-7-7.4-12.6-7.4-17.6c0-15.9,12.9-28.7,28.7-28.7c15.9,0,28.7,12.9,28.7,28.7c0,4.8-2.5,10.7-7.4,17.6
	C86.2,66.1,85.8,66.3,85.3,66.2z"/>
<path class="st0" d="M65,110.6c-15.9,0-28.7-12.9-28.7-28.7C36.3,66.3,63,42.9,64.2,42c0.5-0.4,1.2-0.4,1.6,0
	c1.1,1,27.9,24.4,27.9,39.9C93.7,97.8,80.8,110.6,65,110.6z M65,44.6c-4.5,4.1-26.2,24.3-26.2,37.3c0,14.5,11.8,26.2,26.2,26.2
	c14.5,0,26.2-11.7,26.2-26.2C91.2,68.9,69.5,48.6,65,44.6L65,44.6z"/>
<path class="st0" d="M65,104.1c-0.7,0-1.2-0.6-1.2-1.2V80.4c0-0.7,0.6-1.2,1.2-1.2s1.2,0.6,1.2,1.2v22.5
	C66.2,103.6,65.7,104.1,65,104.1z"/>
</svg>
