<?xml version="1.0" encoding="utf-8"?>
<!-- Generator: Adobe Illustrator 25.4.1, SVG Export Plug-In . SVG Version: 6.00 Build 0)  -->
<svg version="1.1" id="Livello_1" xmlns="http://www.w3.org/2000/svg" xmlns:xlink="http://www.w3.org/1999/xlink" x="0px" y="0px"
	 viewBox="0 0 130 130" style="enable-background:new 0 0 130 130;" xml:space="preserve">
<style type="text/css">
	.st0{stroke:#000000;stroke-width:4;stroke-miterlimit:10;}
</style>
<path class="st0" d="M65.2,101.8c-20.4,0-37-16.6-37-37c0-7.4,2.2-14.7,6.4-20.8c0.4-0.6,1.2-0.7,1.7-0.3c0.6,0.4,0.7,1.2,0.3,1.7
	c-10.8,15.6-6.9,37,8.8,47.8s37,6.9,47.8-8.8s6.9-37-8.8-47.8c-4.6-3.2-9.9-5.2-15.5-5.8v37.5c0,0.7-0.6,1.2-1.2,1.2H44
	c-0.7,0-1.3-0.6-1.3-1.3c0-0.7,0.6-1.3,1.3-1.3h22.5V29.4c0-0.4,0.2-0.7,0.4-0.9c0.2-0.2,0.6-0.4,0.9-0.3
	c20.4,1.6,35.5,19.5,33.9,39.9c-0.7,8.7-4.5,16.9-10.6,23C84.3,98,74.9,101.8,65.2,101.8z"/>
</svg>
