<svg xmlns="http://www.w3.org/2000/svg" viewBox="0 0 342 185"><path d="M88,40.55l-24,47.37H91.63v30.7H16.38L40.19,71.09H15.44V40.55Z"/><path d="M179,84.32H115.62a21.41,21.41,0,0,1-1-6.18A21.74,21.74,0,0,1,116,70.46h33.87q-1.56-8.68-9.78-8.69a10.64,10.64,0,0,0-8.93,4.66q-3.45,4.66-3.44,11.94c0,5.07,1.1,9.16,3.32,12.3a10.24,10.24,0,0,0,8.73,4.69q4.4,0,8.46-4.38l16.68,20A41,41,0,0,1,139,120.18q-17.39,0-29.2-11.66T98,79.63a39.22,39.22,0,0,1,11.94-29q11.94-11.82,29.33-11.82,17,0,28.54,11.55t11.55,28.46C179.33,80,179.22,81.82,179,84.32Z"/><path d="M234,39.77V71.09a11.51,11.51,0,0,0-5.56-1.72q-8,0-8,12.21v87.08H191.15V76q0-16.92,9.24-27t24.66-10.06A60.62,60.62,0,0,1,234,39.77Z"/><path d="M327,50.47a39.08,39.08,0,0,1-12,28.82,41.31,41.31,0,0,1-58.06,0,39,39,0,0,1-12.06-28.78,38.61,38.61,0,0,1,12.06-28.85q12.06-11.7,29.76-11.71a38.74,38.74,0,0,1,28.46,11.94A39.17,39.17,0,0,1,327,50.47Z"/><path d="M21,137.29v25.2H17.93v-25.2Zm-1.37,25.2v-3.06h5.87a11.07,11.07,0,0,0,3.89-.66,8.65,8.65,0,0,0,3-1.91,8.36,8.36,0,0,0,1.94-3,11.71,11.71,0,0,0,0-7.92,8.4,8.4,0,0,0-1.94-3,8.5,8.5,0,0,0-3-1.91,11.07,11.07,0,0,0-3.89-.67H19.62v-3.06h5.87A13.08,13.08,0,0,1,32,138.88a11.42,11.42,0,0,1,4.47,4.41,14.27,14.27,0,0,1,0,13.21A11.55,11.55,0,0,1,32,160.91a13.08,13.08,0,0,1-6.51,1.58Z"/><path d="M53.1,137.29v25.2H50v-25.2Zm-1.37,0H64.44v2.88H51.73Zm0,10.08h12v2.88h-12Zm0,12.24H64.44v2.88H51.73Z"/><path d="M80.23,157.53a7.55,7.55,0,0,0,2.14,1.8,5.55,5.55,0,0,0,2.7.64,4.65,4.65,0,0,0,3.24-1.11A3.71,3.71,0,0,0,89.53,156a4.27,4.27,0,0,0-.79-2.7,5.94,5.94,0,0,0-2.07-1.63A24.94,24.94,0,0,0,84,150.54c-.62-.21-1.32-.5-2.09-.84a11.1,11.1,0,0,1-2.19-1.34,6.44,6.44,0,0,1-1.71-2,5.86,5.86,0,0,1-.67-2.92,6.09,6.09,0,0,1,.94-3.35,6.48,6.48,0,0,1,2.59-2.32,8.22,8.22,0,0,1,3.78-.85,7.77,7.77,0,0,1,3.58.78,8.59,8.59,0,0,1,2.61,2,9.86,9.86,0,0,1,1.69,2.54l-2.62,1.51a10.65,10.65,0,0,0-1.19-1.84,5.79,5.79,0,0,0-1.75-1.47,5,5,0,0,0-2.5-.58,4,4,0,0,0-3,1,3.16,3.16,0,0,0-.93,2.21A3.63,3.63,0,0,0,81,145a5.28,5.28,0,0,0,1.81,1.66,19.43,19.43,0,0,0,3.48,1.53,17.84,17.84,0,0,1,2.12.93,9.24,9.24,0,0,1,2.07,1.46,7.27,7.27,0,0,1,1.57,2.12,6.64,6.64,0,0,1,.61,3,6.9,6.9,0,0,1-.63,3,6.7,6.7,0,0,1-1.73,2.27,8.18,8.18,0,0,1-2.48,1.44,8.65,8.65,0,0,1-6.7-.38,10.57,10.57,0,0,1-3.06-2.34A14.14,14.14,0,0,1,76,156.52l2.45-1.66A18,18,0,0,0,80.23,157.53Z"/><path d="M107.89,137.29v25.2h-3.06v-25.2Z"/><path d="M133,149.71h11.7a15.48,15.48,0,0,1-.79,5,12.76,12.76,0,0,1-2.34,4.19,11,11,0,0,1-3.8,2.9,11.85,11.85,0,0,1-5.13,1.06,13.22,13.22,0,0,1-5.07-.95,12.08,12.08,0,0,1-6.75-6.82,14.48,14.48,0,0,1,0-10.37,12.23,12.23,0,0,1,2.68-4.12,11.88,11.88,0,0,1,4.07-2.7,13.23,13.23,0,0,1,5.07-1,14.27,14.27,0,0,1,4.3.62,11,11,0,0,1,3.53,1.8,10.45,10.45,0,0,1,2.65,3l-2.16,2a8.23,8.23,0,0,0-3.31-3.15,10.47,10.47,0,0,0-5-1.14,9.33,9.33,0,0,0-8.26,4.74,11,11,0,0,0,0,10.31,9.31,9.31,0,0,0,8.26,4.75,9.65,9.65,0,0,0,3.37-.55,7.86,7.86,0,0,0,2.57-1.57,8.82,8.82,0,0,0,1.78-2.3,10.66,10.66,0,0,0,1-2.78H133Z"/><path d="M179,137.29v26.46l-19.08-20v18.75h-3.07V136l19.09,20V137.29Z"/></svg>