<?xml version="1.0" encoding="utf-8"?>
<!-- Generator: Adobe Illustrator 25.4.1, SVG Export Plug-In . SVG Version: 6.00 Build 0)  -->
<svg version="1.1" id="Livello_1" xmlns="http://www.w3.org/2000/svg" xmlns:xlink="http://www.w3.org/1999/xlink" x="0px" y="0px"
	 viewBox="0 0 130 130" style="enable-background:new 0 0 130 130;" xml:space="preserve">
<style type="text/css">
	.st0{stroke:#000000;stroke-width:4;stroke-miterlimit:10;}
</style>
<path class="st0" d="M102.4,88.8H27.6c-0.7,0-1.2-0.6-1.2-1.2s0.6-1.2,1.2-1.2h73.6l3.2-41.3L81,58.6c-0.6,0.3-1.4,0.1-1.7-0.4
	c-0.3-0.6-0.1-1.4,0.4-1.7l25.5-14.8c0.4-0.2,0.9-0.2,1.3,0c0.4,0.2,0.6,0.7,0.6,1.2l-3.5,44.8C103.6,88.3,103,88.8,102.4,88.8z"/>
<path class="st0" d="M102.4,88.8H27.6c-0.7,0-1.2-0.5-1.2-1.2l-3.5-44.8c0-0.5,0.2-0.9,0.6-1.2c0.4-0.2,0.9-0.2,1.3,0l48.8,28.2
	c0.6,0.3,1,1,0.7,1.6c-0.3,0.6-1,1-1.6,0.7c-0.1,0-0.2-0.1-0.3-0.2L25.6,45l3.2,41.3h73.6c0.7,0,1.2,0.6,1.2,1.2
	S103.1,88.8,102.4,88.8z"/>
<path class="st0" d="M80,58.8c-0.3,0-0.6-0.1-0.9-0.4L65,44.2L50.8,58.4c-0.5,0.5-1.3,0.5-1.8,0c0,0,0,0,0,0c-0.5-0.5-0.5-1.3,0-1.8
	l15-15c0.5-0.5,1.3-0.5,1.8,0c0,0,0,0,0,0l15,15c0.5,0.5,0.5,1.3,0,1.8c0,0,0,0,0,0C80.6,58.6,80.3,58.8,80,58.8z"/>
</svg>
