<?xml version="1.0" encoding="utf-8"?>
<!-- Generator: Adobe Illustrator 25.4.1, SVG Export Plug-In . SVG Version: 6.00 Build 0)  -->
<svg version="1.1" id="Livello_1" xmlns="http://www.w3.org/2000/svg" xmlns:xlink="http://www.w3.org/1999/xlink" x="0px" y="0px"
	 viewBox="0 0 130 130" style="enable-background:new 0 0 130 130;" xml:space="preserve">
<style type="text/css">
	.st0{stroke:#000000;stroke-width:4;stroke-miterlimit:10;}
</style>
<g>
	<path class="st0" d="M86.1,102.4H27.9c-0.7,0-1.2-0.6-1.2-1.2V16.9c0-0.7,0.6-1.2,1.2-1.2h58.2c0.7,0,1.2,0.6,1.2,1.2v84.3
		C87.3,101.8,86.8,102.4,86.1,102.4z M29.1,99.9h55.7V18.1H29.1V99.9z"/>
	<path class="st0" d="M102.1,114.4H43.9c-0.7,0-1.2-0.6-1.2-1.2V106c0-0.7,0.6-1.2,1.2-1.2s1.2,0.6,1.2,1.2v5.9h55.7V30.1H45.2v42.6
		h20.4V57.2c0-0.7,0.6-1.2,1.2-1.2c0.7,0,1.2,0.6,1.2,1.2V74c0,0.7-0.6,1.2-1.2,1.2H43.9c-0.7,0-1.2-0.6-1.2-1.2V28.9
		c0-0.7,0.6-1.2,1.2-1.2h58.2c0.7,0,1.2,0.6,1.2,1.2v84.3C103.4,113.8,102.8,114.4,102.1,114.4z"/>
</g>
</svg>
