<?xml version="1.0" encoding="utf-8"?>
<!-- Generator: Adobe Illustrator 25.4.1, SVG Export Plug-In . SVG Version: 6.00 Build 0)  -->
<svg version="1.1" id="Livello_1" xmlns="http://www.w3.org/2000/svg" xmlns:xlink="http://www.w3.org/1999/xlink" x="0px" y="0px"
	 viewBox="0 0 130 130" style="enable-background:new 0 0 130 130;" xml:space="preserve">
<style type="text/css">
	.st0{stroke:#000000;stroke-width:4;stroke-miterlimit:10;}
</style>
<path class="st0" d="M65,108.4c-0.3,0-0.6-0.1-0.9-0.4L22,65.8c-0.2-0.2-0.4-0.5-0.4-0.8c0-0.3,0.1-0.7,0.4-0.9L64.1,22
	c0.5-0.5,1.3-0.5,1.8,0c0,0,0,0,0,0L108,64.2c0.5,0.5,0.5,1.3,0,1.8c0,0,0,0,0,0L65.9,108C65.7,108.3,65.4,108.4,65,108.4z M24.6,65
	L65,105.4L105.4,65L65,24.6L24.6,65z"/>
<path class="st0" d="M64.3,84c-0.3,0-0.6-0.1-0.9-0.4L48.9,69.1c-0.5-0.5-0.5-1.3,0-1.8c0,0,0,0,0,0l10.7-10.7
	c0.5-0.5,1.2-0.6,1.8-0.1c0.5,0.5,0.6,1.2,0.1,1.8c0,0-0.1,0.1-0.1,0.1l-9.8,9.9L64.3,81l29.4-29.4c0.5-0.5,1.3-0.5,1.8,0
	c0.5,0.5,0.5,1.3,0,1.8L65.2,83.6C64.9,83.8,64.6,84,64.3,84z"/>
</svg>
