<?xml version="1.0" encoding="utf-8"?>
<!-- Generator: Adobe Illustrator 25.4.1, SVG Export Plug-In . SVG Version: 6.00 Build 0)  -->
<svg version="1.1" id="Livello_1" xmlns="http://www.w3.org/2000/svg" xmlns:xlink="http://www.w3.org/1999/xlink" x="0px" y="0px"
	 viewBox="0 0 130 130" style="enable-background:new 0 0 130 130;" xml:space="preserve">
<style type="text/css">
	.st0{stroke:#000000;stroke-width:4;stroke-miterlimit:10;}
</style>
<path class="st0" d="M32,98.4c-0.7,0-1.2-0.6-1.2-1.2V32.9c0-0.7,0.5-1.2,1.2-1.3c0.3,0,0.6,0.1,0.8,0.3L65,59.3l32.2-27.4
	c0.5-0.5,1.3-0.5,1.8,0.1c0.5,0.5,0.5,1.3-0.1,1.8c0,0-0.1,0.1-0.1,0.1l-33,28.1c-0.5,0.4-1.2,0.4-1.6,0L33.3,35.6v61.6
	C33.3,97.8,32.7,98.4,32,98.4C32,98.4,32,98.4,32,98.4z"/>
<path class="st0" d="M98,98.2c-0.7,0-1.3-0.5-1.3-1.2V48.4L65.8,74.8c-0.5,0.4-1.2,0.4-1.6,0L38.1,52.6c-0.5-0.5-0.5-1.3-0.1-1.8
	c0.4-0.5,1.2-0.5,1.7-0.1L65,72.2l32.2-27.4c0.5-0.4,1.3-0.4,1.8,0.1c0.2,0.2,0.3,0.5,0.3,0.8V97C99.2,97.7,98.7,98.2,98,98.2z"/>
<path class="st0" d="M98,98.2H65c-0.7,0-1.2-0.6-1.2-1.2s0.6-1.2,1.2-1.2h33c0.7,0,1.2,0.6,1.2,1.2S98.7,98.2,98,98.2z"/>
</svg>
