<svg id="Livello_1" data-name="Livello 1" xmlns="http://www.w3.org/2000/svg" viewBox="0 0 130 130"><path d="M22.29,33V9a3.44,3.44,0,0,1,3.44-3.44h0a3.3,3.3,0,0,1,2.07.7l78.66,56.05a3.49,3.49,0,0,1,.41,5,3.78,3.78,0,0,1-.4.4l-.14.11L27.81,123.81A3.48,3.48,0,0,1,23,123.1a3.43,3.43,0,0,1-.69-2.07V65a3.42,3.42,0,0,1,3.38-3.44h0a3.55,3.55,0,0,1,1.12.18L60,61.3h.08a3.48,3.48,0,0,1,3.45,3.33v.18a3.43,3.43,0,0,1-3.44,3.31l-30.92.43v45.8L98.37,65,29.16,15.59V33a3.44,3.44,0,0,1-6.87.37A2.29,2.29,0,0,1,22.29,33Z"/></svg>