<svg xmlns="http://www.w3.org/2000/svg" viewBox="0 0 346 202"><defs><style>.a{font-size:36px;font-family:Righteous-Regular, Righteous;letter-spacing:0.21em;}.b{letter-spacing:0.2em;}</style></defs><path d="M90,50.73l-24,47.37H93.63v30.7H18.38L42.19,81.27H17.44V50.73Z"/><path d="M181,94.5H117.62A20.49,20.49,0,0,1,118,80.64h33.87Q150.32,72,142.1,72a10.62,10.62,0,0,0-8.93,4.66c-2.3,3.1-3.44,7.09-3.44,11.94q0,7.59,3.32,12.29a10.24,10.24,0,0,0,8.73,4.7q4.4,0,8.46-4.38l16.68,20A41,41,0,0,1,141,130.36q-17.39,0-29.2-11.66T100,89.8a39.2,39.2,0,0,1,11.94-29Q123.85,49,141.24,49q17,0,28.54,11.55T181.33,89C181.33,90.17,181.22,92,181,94.5Z"/><path d="M236,50V81.27a11.51,11.51,0,0,0-5.56-1.72q-8,0-8,12.21v87.07H193.15V86.12q0-16.91,9.24-27t24.66-10.06A59.28,59.28,0,0,1,236,50Z"/><path d="M329,60.64a39.08,39.08,0,0,1-12,28.82,41.31,41.31,0,0,1-58.06,0,39,39,0,0,1-12.06-28.78,38.61,38.61,0,0,1,12.06-28.85q12.06-11.7,29.76-11.71A38.74,38.74,0,0,1,317.09,32,39.17,39.17,0,0,1,329,60.64Z"/><text class="a" transform="translate(17.05 172.67)">D<tspan class="b" x="31.17" y="0">E</tspan><tspan x="59.33" y="0">SIGN</tspan></text></svg>