<?xml version="1.0" encoding="utf-8"?>
<!-- Generator: Adobe Illustrator 25.4.1, SVG Export Plug-In . SVG Version: 6.00 Build 0)  -->
<svg version="1.1" id="Livello_1" xmlns="http://www.w3.org/2000/svg" xmlns:xlink="http://www.w3.org/1999/xlink" x="0px" y="0px"
	 viewBox="0 0 130 130" style="enable-background:new 0 0 130 130;" xml:space="preserve">
<style type="text/css">
	.st0{stroke:#000000;stroke-width:4;stroke-miterlimit:10;}
</style>
<path class="st0" d="M86.8,105.6H26.2c-0.7,0-1.2-0.6-1.2-1.2V43.7c0-0.7,0.6-1.2,1.2-1.2h60.5c0.7,0,1.2,0.6,1.2,1.2v60.6
	C88,105.1,87.4,105.6,86.8,105.6z M27.5,103.1h58V45h-58L27.5,103.1z"/>
<path class="st0" d="M103.8,87.5H43.2c-0.7,0-1.2-0.6-1.2-1.2V65.4c0-0.7,0.6-1.2,1.2-1.2h15.4c0.7,0,1.2,0.6,1.2,1.2
	s-0.6,1.2-1.2,1.2H44.5V85h58V26.9h-58v16.9c0,0.7-0.6,1.2-1.2,1.2S42,44.4,42,43.7V25.6c0-0.7,0.6-1.2,1.2-1.2h60.5
	c0.7,0,1.2,0.6,1.2,1.2v60.6C105,86.9,104.4,87.5,103.8,87.5z"/>
</svg>
