<?xml version="1.0" encoding="utf-8"?>
<!-- Generator: Adobe Illustrator 25.4.1, SVG Export Plug-In . SVG Version: 6.00 Build 0)  -->
<svg version="1.1" id="Livello_1" xmlns="http://www.w3.org/2000/svg" xmlns:xlink="http://www.w3.org/1999/xlink" x="0px" y="0px"
	 viewBox="0 0 130 130" style="enable-background:new 0 0 130 130;" xml:space="preserve">
<style type="text/css">
	.st0{stroke:#000000;stroke-width:4;stroke-miterlimit:10;}
</style>
<path class="st0" d="M65,78.4c-0.1,0-0.3,0-0.4-0.1L28.3,66.4c-0.5-0.2-0.9-0.7-0.9-1.2V41.4c0-0.5,0.3-1,0.9-1.2l36.3-11.9
	c0.3-0.1,0.5-0.1,0.8,0l36.3,11.9c0.5,0.2,0.9,0.7,0.9,1.2v7.2c0,0.7-0.6,1.2-1.2,1.2s-1.2-0.6-1.2-1.2v-6.3L65,30.8L29.9,42.3v22
	L65,75.9l35.9-11.8c0.7-0.2,1.4,0.1,1.6,0.8c0.2,0.7-0.1,1.4-0.8,1.6L65.4,78.4C65.3,78.4,65.1,78.4,65,78.4z"/>
<path class="st0" d="M65,101.7c-0.1,0-0.3,0-0.4-0.1L28.3,89.8c-0.5-0.2-0.9-0.7-0.9-1.2c0-0.6,0.4-1,1-1.2l17.1-3.9
	c0.7-0.1,1.3,0.3,1.5,1c0,0,0,0,0,0c0.1,0.7-0.3,1.3-1,1.4l-12.6,2.9L65,99.2l35.1-11.5V65.3c0-0.7,0.6-1.2,1.2-1.2s1.2,0.6,1.2,1.2
	v23.3c0,0.5-0.3,1-0.9,1.2l-36.3,11.9C65.3,101.7,65.1,101.7,65,101.7z"/>
<path class="st0" d="M65,101.7c-0.7,0-1.2-0.6-1.2-1.2V42.1c0-0.7,0.6-1.2,1.2-1.2s1.2,0.6,1.2,1.2v58.4
	C66.3,101.2,65.7,101.7,65,101.7L65,101.7z"/>
</svg>
