<?xml version="1.0" encoding="utf-8"?>
<!-- Generator: Adobe Illustrator 25.4.1, SVG Export Plug-In . SVG Version: 6.00 Build 0)  -->
<svg version="1.1" id="Livello_1" xmlns="http://www.w3.org/2000/svg" xmlns:xlink="http://www.w3.org/1999/xlink" x="0px" y="0px"
	 viewBox="0 0 130 130" style="enable-background:new 0 0 130 130;" xml:space="preserve">
<style type="text/css">
	.st0{stroke:#000000;stroke-width:4;stroke-miterlimit:10;}
</style>
<path class="st0" d="M65.9,91.9c-0.3,0-0.6-0.1-0.9-0.4L51.7,78.2c-0.2-0.2-0.4-0.6-0.4-0.9c0-0.3,0.1-0.6,0.4-0.9l6.9-6.9
	c0.5-0.5,1.3-0.4,1.8,0.1c0.4,0.5,0.4,1.2,0,1.7l-6,6l11.6,11.6l37.2-37.2L65.9,14.6L28.7,51.8l10.8,10.8c0.5,0.5,0.5,1.3,0,1.8
	c-0.5,0.5-1.3,0.5-1.8,0c0,0,0,0,0,0L26.1,52.6c-0.2-0.2-0.4-0.5-0.4-0.9c0-0.3,0.1-0.7,0.4-0.9L65,11.9c0.5-0.5,1.3-0.5,1.8,0
	c0,0,0,0,0,0l39,38.9c0.2,0.2,0.4,0.6,0.4,0.9c0,0.3-0.1,0.6-0.4,0.9l-38.9,39C66.6,91.8,66.2,91.9,65.9,91.9z"/>
<path class="st0" d="M64.1,118.4c-0.3,0-0.6-0.1-0.9-0.4L24.3,79.1c-0.5-0.5-0.5-1.3,0-1.8c0,0,0,0,0,0l39-39c0.5-0.5,1.3-0.5,1.8,0
	c0,0,0,0,0,0l13.3,13.4c0.5,0.5,0.5,1.3,0,1.8c0,0,0,0,0,0L72,59.9c-0.5,0.5-1.3,0.4-1.8-0.1c-0.4-0.5-0.4-1.2,0-1.7l5.5-5.5
	L64.1,41.1L26.9,78.2l37.2,37.2l37.2-37.2L90.5,67.5c-0.5-0.5-0.5-1.3,0-1.8c0.5-0.5,1.3-0.5,1.8,0c0,0,0,0,0,0l11.6,11.6
	c0.2,0.2,0.4,0.5,0.4,0.9c0,0.3-0.1,0.7-0.4,0.9L65,118.1C64.8,118.3,64.4,118.5,64.1,118.4z"/>
</svg>
