<?xml version="1.0" encoding="UTF-8"?><svg xmlns="http://www.w3.org/2000/svg" width="71.7" height="100" viewBox="0 0 71.7 100"><defs><style>.d{font-family:ArialRoundedMTBold, Arial Rounded MT Bold;font-size:22.61px;}</style></defs><g id="a"/><g id="b"><g id="c"><g><path d="M46.5,96.4c-.51-11.05-9.18-19.44-19.41-18.79,1.39,11.29,8.86,18.52,19.41,18.79Z"/><path d="M27.32,22.7c11-.44,19.38-9.03,18.86-19.35-11.16,1.21-18.46,8.69-18.86,19.35Z"/><path d="M71.7,27.98c-11.57,.69-19.34,8.46-19.91,19.43,10.82-.77,17.41-7.06,19.91-19.43Z"/><path d="M51.68,52.14c.92,11.74,8.68,19.4,19.57,19.82-1-10.95-7.34-17.52-19.57-19.82Z"/><path d="M46.45,47.93c-.25-11.43-8.77-19.84-19.36-19.63,1.09,10.76,7.22,17.12,19.36,19.63Z"/><path d="M51.3,3.43c2.35,12.54,10.48,19.96,20.31,18.97-2.36-11.82-9.09-18.28-20.31-18.97Z"/><path d="M27.43,72.14c11.47-1.29,19.07-9.2,18.91-19.68-11.58,1.43-19,9.15-18.91,19.68Z"/><path d="M51.26,96.59c11.59-.63,19.16-8.24,19.84-19.36-10.6,.57-17.41,7.07-19.84,19.36Z"/><text class="d" transform="translate(19.54 99.97) rotate(-89.61) scale(1.91 1)"><tspan x="0" y="0">Mojo</tspan></text></g></g></g></svg>