<?xml version="1.0" encoding="UTF-8"?><svg xmlns="http://www.w3.org/2000/svg" width="179.1" height="100" viewBox="0 0 179.1 100"><g id="a"/><g id="b"><g id="c"><g><path d="M0,0H11.7l30.56,39.26L72.81,0h11.58V47.5h-10.86V12.08l-27.45,35.42h-7.64L10.86,12.01V47.5H0V0Z"/><path d="M74.58,56.25h9.94v32c0,7.21-8.43,11.75-20.86,11.75s-20.97-4.6-20.97-12.18h9.83c.11,3.98,3.35,7.15,11.13,7.15s10.92-3.11,10.92-6.71V56.25Z"/><g><path d="M136,100c-24.14,0-43.1-10.41-43.1-25.21s18.96-25.21,43.1-25.21,43.1,10.41,43.1,25.21-18.84,25.21-43.1,25.21Zm0-5.6c18.1,0,31.65-7.58,31.65-19.62s-13.55-19.62-31.65-19.62-31.65,7.51-31.65,19.62,13.55,19.62,31.65,19.62Z"/><path d="M136,50.42c-24.14,0-43.1-10.41-43.1-25.21S111.86,0,136,0s43.1,10.41,43.1,25.21-18.84,25.21-43.1,25.21Zm0-5.6c18.1,0,31.65-7.58,31.65-19.62s-13.55-19.62-31.65-19.62-31.65,7.51-31.65,19.62,13.55,19.62,31.65,19.62Z"/></g></g></g></g></svg>