<?xml version="1.0" encoding="UTF-8"?><svg xmlns="http://www.w3.org/2000/svg" width="81.87" height="100.03" viewBox="0 0 81.87 100.03"><defs><style>.d{font-family:ArialRoundedMTBold, Arial Rounded MT Bold;font-size:21.3px;}</style></defs><g id="a"/><g id="b"><g id="c"><g><text class="d" transform="translate(18.4 100) rotate(-89.61) scale(1.91 1)"><tspan x="0" y="0">Mojo</tspan></text><g><path d="M36.86,47.48c3.9-3.57,7.59-6.79,11.1-10.19,4.43-4.29,8.58-3.98,12.8,.29,3.29,3.32,6.72,6.5,9.86,9.52-.22,1.03-.17,1.6-.44,1.89-15.48,17.52-16.25,17.51-33.34-1.51Z"/><path d="M34.18,44.56c-9.94-10.43-9.94-23.87,.13-34.24,3.78,4.11,8.15,7.83,11.06,12.47,1.46,2.32,1.46,7.08,0,9.38-2.95,4.62-7.37,8.31-11.19,12.39Z"/><path d="M74.86,43.94c-.69-.51-1.49-.95-2.11-1.58-14.51-14.54-18.37-13.87,2.24-31.12,9.19,9.4,9.22,22.8-.12,32.7Z"/><path d="M74.88,52.32c9.37,10.22,9.23,23.79-.03,32.72-.22-.08-.48-.1-.64-.23-17.59-14.54-17.57-16.9,.67-32.48Z"/><path d="M33.53,52.54c.22,.07,.48,.07,.64,.21,17.64,14.67,17.63,17.04-.22,32.17-9.72-7.56-9.92-23-.42-32.37Z"/><path d="M36.95,7.41c10.85-9.88,22.74-9.99,35.3,.36-4.37,3.69-8.56,7.28-12.8,10.8-3.6,2.99-7.26,2.91-10.72-.22-3.97-3.58-7.84-7.27-11.79-10.94Z"/><path d="M37.86,89.63c.05-.23,.03-.52,.16-.68,14.73-17.82,17.69-17.79,32.46,.38-9.02,9.5-22.5,9.62-32.62,.29Z"/></g></g></g></g></svg>