<?xml version="1.0" encoding="UTF-8"?><svg xmlns="http://www.w3.org/2000/svg" width="202.12" height="100" viewBox="0 0 202.12 100"><g id="a"/><g id="b"><g id="c"><g><path d="M95.61,0V96.62h-18.29V52.35l-30.27,43.01h-.25L17.66,55.12v41.5H0V0H.13L47.17,66.72,95.36,0h.25Z"/><g><path d="M153.81,0c-13.71,.03-24.51,9.75-25.91,22.85-.2,1.82-.59,2.61-2.64,2.84-10.5,1.18-17.9,6.77-21.43,16.72-3.49,9.83-1.34,18.79,5.82,26.36,5.46,5.78,11.2,11.3,16.7,17.05,1.4,1.46,2.2,1.26,3.45-.09,2.23-2.41,4.55-4.77,7-6.97,1.46-1.31,1.36-2.11,0-3.43-5.46-5.27-10.82-10.65-16.19-16.01-4.94-4.93-5.28-11.34-.88-15.85,4.38-4.49,10.91-4.24,15.84,.65,5.45,5.41,10.92,10.81,16.27,16.32,1.27,1.3,2.02,1.33,3.24,.01,2.36-2.54,4.81-5.03,7.38-7.36,1.45-1.31,1.39-2.13,.02-3.46-5.76-5.62-11.39-11.37-17.12-17.02-1.08-1.06-1.86-2.25-2.37-3.63-1.7-4.64,.02-9.86,4.11-12.57,4.25-2.81,9.61-2.34,13.34,1.29,5.76,5.62,11.5,11.26,17.16,16.97,1.24,1.25,1.98,1.42,3.24,.04,2.28-2.5,4.71-4.86,7.18-7.17,1.12-1.05,1.17-1.73,.05-2.85-5.75-5.76-11.35-11.66-17.13-17.39-4.9-4.87-10.95-7.15-17.13-7.29Z"/><path d="M151.61,100c12.74,.03,23.3-9.29,24.69-21.89,.24-2.22,.7-3.38,3.45-3.71,10.25-1.23,17.56-6.84,20.86-16.62,3.35-9.94,1.08-18.89-6.46-26.43-1.37-1.37-2.12-1.14-3.26,.1-1.73,1.89-3.47,3.79-5.42,5.43-2.05,1.73-2.39,2.83-.23,5.04,6.19,6.34,2.98,16.6-5.58,18.42-4.19,.89-7.8-.42-10.62-3.61-1.29-1.46-2.19-1.43-3.47,0-1.89,2.11-3.85,4.19-6.01,6.01-2.12,1.79-2.12,2.97-.03,4.9,4.06,3.76,4.32,9.79,.98,14.2-4.1,5.42-11.53,6.04-16.54,1.08-1.95-1.93-3.08-1.79-4.74,.14-1.85,2.14-3.91,4.11-5.97,6.05-1.19,1.11-1.28,1.86-.05,3.08,5.12,5.05,11.14,7.87,18.41,7.82Z"/><path d="M178.36,63.28c5.67-1.7,10.08-4.63,11.6-10.73,.26-1.04,.89-1.28,1.84-1.05,1.59,.4,3.18,.79,4.76,1.2,3.23,.84,3.5,1.28,2.28,4.29-.54,1.34-1.21,2.66-2.02,3.86-1.21,1.81-2.66,3.07-5.22,2.46-1.83-.43-3.84-.36-5.68,.24-2.55,.83-5.01,.19-7.56-.28Z"/><path d="M163.21,62.84c.12-.37,.12-.48,.17-.54,1.16-1.26,2.1-3.03,3.54-3.64,1.69-.72,2.47,1.78,4.01,2.34,1.01,.36,1.93,.97,3.31,1.69-3.91,.94-7.37,1.62-11.03,.16Z"/></g></g></g></g></svg>