<?xml version="1.0" encoding="UTF-8"?><svg xmlns="http://www.w3.org/2000/svg" width="73.63" height="100" viewBox="0 0 73.63 100"><defs><style>.d{font-family:Raleway-Thin, Raleway;font-size:23.28px;}.e{letter-spacing:0em;}</style></defs><g id="a"/><g id="b"><g id="c"><g><path d="M47.68,96.3c-.53-11.38-9.45-20.02-19.99-19.35,1.44,11.63,9.13,19.07,19.99,19.35Z"/><path d="M27.93,20.4c11.33-.45,19.95-9.3,19.43-19.93-11.49,1.24-19.01,8.95-19.43,19.93Z"/><path d="M73.63,25.84c-11.92,.71-19.91,8.71-20.5,20.01,11.14-.79,17.92-7.27,20.5-20.01Z"/><path d="M53.01,50.71c.94,12.09,8.94,19.98,20.15,20.41-1.03-11.27-7.56-18.04-20.15-20.41Z"/><path d="M47.62,46.38c-.26-11.77-9.03-20.43-19.93-20.22,1.12,11.08,7.44,17.63,19.93,20.22Z"/><path d="M52.62,.56c2.42,12.91,10.79,20.56,20.92,19.53C71.1,7.92,64.18,1.27,52.62,.56Z"/><path d="M28.04,71.31c11.81-1.32,19.64-9.48,19.47-20.26-11.92,1.47-19.56,9.43-19.47,20.26Z"/><path d="M52.58,96.49c11.94-.65,19.73-8.48,20.43-19.93-10.92,.59-17.93,7.28-20.43,19.93Z"/><text class="d" transform="translate(19.91 99.97) rotate(-89.61) scale(1.91 1)"><tspan class="e" x="0" y="0">M</tspan><tspan x="20.42" y="0">ojo</tspan></text></g></g></g></svg>