<?xml version="1.0" encoding="UTF-8"?><svg xmlns="http://www.w3.org/2000/svg" width="340.52" height="100" viewBox="0 0 340.52 100"><g id="a"/><g id="b"><g id="c"><g><path d="M190.33,0c-.26,.6-.78,7.2-1.82,19.94V86.36l.78,13.64h-52.67v-1.05l.52-8.84,.52-12.59v-24.59l-44.58,38.83L52.41,55.77l-.26,24.44c0,1.95,0,4.05,1.04,19.04v.75H.78v-.6c0-.75,.26-1.5,.52-4.95,.26-2.1,.26-9.14,.26-13.49L1.04,15.44c0-.9-.26-5.55-1.04-14.24V0H50.32l44.32,39.88L137.4,0h52.93Z"/><path d="M340.52,69.02c0,9.3-7.35,18.03-19.84,23.52-10.53,4.65-28.66,7.46-48.5,7.46-41.64,0-69.56-11.83-69.56-29.44,0-9.16,8.08-17.18,24-23.52-8.82-5.07-13.96-11.83-13.96-18.73,0-16.2,27.19-28.31,63.19-28.31,33.31,0,58.54,11.27,58.54,26.06,0,8.03-7.84,15.35-20.09,19.02,18.12,5.63,26.21,13.1,26.21,23.94Zm-89.4,.98c0,4.93,8.82,8.17,21.8,8.17,10.29,0,17.39-3.38,17.39-8.45,0-2.53-2.45-4.36-8.57-6.2-6.37-1.69-12.74-2.82-18.86-3.38-6.86,1.55-11.76,5.77-11.76,9.86Zm9.55-42.67c0,3.24,7.84,7.46,14.21,7.46,7.59,0,15.43-3.8,15.43-7.46s-7.1-6.9-14.7-6.9c-8.57,0-14.94,2.96-14.94,6.9Z"/></g></g></g></svg>