<?xml version="1.0" encoding="UTF-8"?><svg xmlns="http://www.w3.org/2000/svg" width="262.77" height="100" viewBox="0 0 262.77 100"><g id="a"/><g id="b"><g id="c"><g><path d="M262.77,69.02c0,9.3-7.35,18.03-19.84,23.52-10.53,4.65-28.66,7.46-48.5,7.46-41.64,0-69.56-11.83-69.56-29.44,0-9.16,8.08-17.18,24-23.52-8.82-5.07-13.96-11.83-13.96-18.73,0-16.2,27.19-28.31,63.19-28.31,33.31,0,58.54,11.27,58.54,26.06,0,8.03-7.84,15.35-20.09,19.02,18.12,5.63,26.21,13.1,26.21,23.94Zm-89.4,.98c0,4.93,8.82,8.17,21.8,8.17,10.29,0,17.39-3.38,17.39-8.45,0-2.53-2.45-4.36-8.57-6.2-6.37-1.69-12.74-2.82-18.86-3.38-6.86,1.55-11.76,5.77-11.76,9.86Zm9.55-42.67c0,3.24,7.84,7.46,14.21,7.46,7.59,0,15.43-3.8,15.43-7.46s-7.1-6.9-14.7-6.9c-8.57,0-14.94,2.96-14.94,6.9Z"/><g><path d="M123.79,0c-.17,.39-.51,4.68-1.19,12.97V56.17l.51,8.87h-34.26v-.68l.34-5.75,.34-8.19v-15.99l-29,25.26-26.45-23.4-.17,15.89c0,1.27,0,2.63,.68,12.38v.49H.51v-.39c0-.49,.17-.97,.34-3.22,.17-1.37,.17-5.95,.17-8.78L.68,10.04c0-.58-.17-3.61-.68-9.26V0H32.73l28.83,25.94L89.37,0h34.42Z"/><g><path d="M41.35,77.49c3.55,2.42,5.22,5.19,5.22,8.81,0,7.58-10.51,13.7-23.49,13.7S0,94.04,0,86.57c0-3.46,2.28-6.81,6.49-9.5,4.22-2.73,10.51-4.27,17.26-4.27s13.12,1.69,17.6,4.69Zm-27.97,8.93c0,3.54,4.01,5.96,9.84,5.96,5.35,0,9.3-2.5,9.3-5.89,0-3.62-4.08-6.35-9.43-6.35s-9.7,2.66-9.7,6.27Z"/><path d="M73.47,73.57c-.4,1.65-.67,3.73-.87,6.62l-.2,9.2v.04c.07,2.69-1.07,5.12-3.01,6.7-3.08,2.5-8.36,3.89-14.65,3.89-3.35,0-6.62-.38-9.9-1.19l3.48-6.66c1.54,.5,3.28,.77,4.88,.77,3.55,0,5.42-1.31,5.42-3.81l.13-12.12c0-1.38-.2-3.16-.4-3.42h15.12Z"/><path d="M118.57,77.49c3.55,2.42,5.22,5.19,5.22,8.81,0,7.58-10.51,13.7-23.49,13.7s-23.09-5.96-23.09-13.43c0-3.46,2.28-6.81,6.49-9.5,4.22-2.73,10.51-4.27,17.26-4.27s13.12,1.69,17.6,4.69Zm-27.97,8.93c0,3.54,4.01,5.96,9.84,5.96,5.35,0,9.3-2.5,9.3-5.89,0-3.62-4.08-6.35-9.43-6.35s-9.7,2.66-9.7,6.27Z"/></g></g></g></g></g></svg>